<?xml version="1.0"?>
<svg xmlns="http://www.w3.org/2000/svg" viewBox="0 -11 512 512" width="512px" height="512px" class=""><g><path d="m512 299v-15h-18.730469l-45-30h-29.769531v-33h93v-185h-93v-36h-59v36h-93v185h93v65h-23v40h-15v55h14v36.378906h14v35.621094h10v36h59v-36h29.375l45-24h19.125v-15h-22.875l-45 24h-79.625v-20.621094h34.5v-15h-48.5v-21.378906h48.5v-15h-62.5v-25h62.5v-15h-47.5v-25h53v-32h39.230469l45 30zm-137.5 154h29v21h-29zm0-438h29v21h-29zm29 239h-14v32h-15v-65h29zm-122-48v-155h215v155zm0 0" data-original="#000000" class="active-path" data-old_color="#006889" fill="#009886"/><path d="m152.5 0h-59v36h-93v185h93v33h-29.769531l-45 30h-18.730469v15h23.269531l45-30h39.230469v32h53v25h-47.5v15h62.5v25h-62.5v15h48.5v21.378906h-48.5v15h34.5v20.621094h-79.625l-45-24h-22.875v15h19.125l45 24h29.375v36h59v-36h10v-35.621094h14v-36.378906h14v-55h-15v-40h-23v-65h93v-185h-93zm-15 474h-29v-21h29zm-29-459h29v21h-29zm29 271h-15v-32h-14v-33h29zm93-235v155h-215v-155zm0 0" data-original="#000000" class="active-path" data-old_color="#006889" fill="#009886"/><path d="m188.054688 86.804688-10.609376-10.609376-78.695312 78.699219-30.195312-30.199219-10.609376 10.609376 40.804688 40.800781zm0 0" data-original="#000000" class="active-path" data-old_color="#006889" fill="#009886"/><path d="m428.695312 78.195312-39.695312 39.699219-39.695312-39.699219-10.609376 10.609376 39.699219 39.695312-39.699219 39.695312 10.609376 10.609376 39.695312-39.699219 39.695312 39.699219 10.609376-10.609376-39.699219-39.695312 39.699219-39.695312zm0 0" data-original="#000000" class="active-path" data-old_color="#006889" fill="#009886"/><path d="m432.769531 297.71875 8.320313-12.484375 45.003906 30-8.320312 12.484375zm0 0" data-original="#000000" class="active-path" data-old_color="#006889" fill="#009886"/><path d="m25.925781 315.273438 45-30 8.320313 12.484374-45 30zm0 0" data-original="#000000" class="active-path" data-old_color="#006889" fill="#009886"/></g> </svg>
