<svg 
    xmlns="http://www.w3.org/2000/svg"
    xmlns:xlink="http://www.w3.org/1999/xlink">
    <g>
        <path 
			d="M331.796 108.796 C 332.426 109.454,333.019 109.914,333.113 109.820 C 333.322 109.612,331.356 107.600,330.943 107.600 C 330.782 107.600,331.166 108.138,331.796 108.796 M334.602 110.802 C 335.002 111.244,335.411 111.522,335.512 111.421 C 335.728 111.205,334.588 110.000,334.167 110.000 C 334.007 110.000,334.203 110.361,334.602 110.802 M340.600 112.000 C 340.464 112.220,339.537 112.400,338.541 112.400 C 337.231 112.400,336.544 112.618,336.064 113.186 C 335.611 113.723,334.192 114.221,331.600 114.753 C 328.258 115.440,323.662 116.871,318.084 118.963 C 296.732 126.972,276.612 149.942,268.650 175.400 C 266.095 183.570,265.562 185.980,263.567 198.400 C 262.226 206.753,263.079 221.909,265.347 230.000 C 269.742 245.682,280.409 257.860,294.488 263.272 C 295.650 263.719,297.320 264.359,298.200 264.695 C 299.080 265.031,300.475 265.462,301.300 265.653 C 302.125 265.844,303.565 266.197,304.500 266.437 C 306.451 266.938,311.538 267.616,313.600 267.649 C 340.516 268.082,360.547 267.520,362.429 266.279 C 363.115 265.827,364.714 265.516,367.229 265.346 C 369.303 265.206,371.197 264.937,371.437 264.749 C 371.677 264.561,371.957 264.490,372.059 264.593 C 372.161 264.695,372.289 264.018,372.343 263.089 C 372.396 262.160,372.611 261.340,372.820 261.267 C 373.029 261.193,373.200 260.608,373.200 259.967 C 373.200 259.325,373.380 258.800,373.600 258.800 C 373.820 258.800,374.000 258.260,374.000 257.600 C 374.000 256.940,374.180 256.400,374.400 256.400 C 374.620 256.400,374.800 255.860,374.800 255.200 C 374.800 254.540,374.980 254.000,375.200 254.000 C 375.420 254.000,375.600 253.471,375.600 252.824 C 375.600 252.177,375.780 251.536,376.000 251.400 C 376.220 251.264,376.400 250.634,376.400 250.000 C 376.400 249.366,376.580 248.736,376.800 248.600 C 377.020 248.464,377.200 247.823,377.200 247.176 C 377.200 246.529,377.380 246.000,377.600 246.000 C 377.820 246.000,378.000 245.460,378.000 244.800 C 378.000 244.140,378.180 243.600,378.400 243.600 C 378.620 243.600,378.800 243.071,378.800 242.424 C 378.800 241.777,378.980 241.136,379.200 241.000 C 379.420 240.864,379.600 240.234,379.600 239.600 C 379.600 238.966,379.780 238.336,380.000 238.200 C 380.220 238.064,380.400 237.524,380.400 237.000 C 380.400 236.476,380.580 235.936,380.800 235.800 C 381.020 235.664,381.200 235.023,381.200 234.376 C 381.200 233.729,381.380 233.200,381.600 233.200 C 381.820 233.200,382.000 232.660,382.000 232.000 C 382.000 231.340,382.180 230.800,382.400 230.800 C 382.620 230.800,382.800 230.271,382.800 229.624 C 382.800 228.977,382.980 228.336,383.200 228.200 C 383.420 228.064,383.600 227.524,383.600 227.000 C 383.600 226.476,383.780 225.936,384.000 225.800 C 384.220 225.664,384.400 224.933,384.400 224.176 C 384.400 223.419,384.580 222.800,384.800 222.800 C 385.020 222.800,385.200 222.260,385.200 221.600 C 385.200 220.940,385.380 220.400,385.600 220.400 C 385.820 220.400,386.000 219.871,386.000 219.224 C 386.000 218.577,386.180 217.936,386.400 217.800 C 386.620 217.664,386.800 217.124,386.800 216.600 C 386.800 216.076,386.980 215.536,387.200 215.400 C 387.420 215.264,387.600 214.533,387.600 213.776 C 387.600 213.019,387.780 212.400,388.000 212.400 C 388.220 212.400,388.400 211.860,388.400 211.200 C 388.400 210.540,388.580 210.000,388.800 210.000 C 389.020 210.000,389.200 209.460,389.200 208.800 C 389.200 208.140,389.380 207.600,389.600 207.600 C 389.820 207.600,390.000 207.071,390.000 206.424 C 390.000 205.777,390.180 205.136,390.400 205.000 C 390.620 204.864,390.800 204.133,390.800 203.376 C 390.800 202.619,390.980 202.000,391.200 202.000 C 391.420 202.000,391.600 201.651,391.600 201.224 C 391.600 200.797,391.780 200.336,392.000 200.200 C 392.220 200.064,392.400 199.524,392.400 199.000 C 392.400 198.476,392.580 197.936,392.800 197.800 C 393.025 197.661,393.200 195.729,393.200 193.376 C 393.200 190.859,393.041 189.200,392.800 189.200 C 392.580 189.200,392.396 188.795,392.391 188.300 C 392.386 187.805,392.030 186.950,391.600 186.400 C 391.170 185.850,390.814 185.247,390.809 185.060 C 390.795 184.515,387.125 181.200,386.536 181.200 C 386.241 181.200,386.000 181.020,386.000 180.800 C 386.000 180.580,385.496 180.400,384.880 180.400 C 384.264 180.400,383.589 180.229,383.380 180.020 C 383.171 179.811,380.120 179.546,376.600 179.432 C 366.847 179.115,362.239 178.785,361.820 178.373 C 361.611 178.168,359.597 178.000,357.344 178.000 C 355.044 178.000,353.139 177.825,353.000 177.600 C 352.861 177.375,350.937 177.200,348.600 177.200 C 346.263 177.200,344.339 177.025,344.200 176.800 C 343.688 175.972,335.446 176.311,334.492 177.200 C 334.020 177.640,333.440 178.000,333.203 178.000 C 332.717 178.000,330.005 180.606,329.991 181.087 C 329.986 181.259,329.630 181.850,329.200 182.400 C 328.664 183.085,328.415 184.033,328.409 185.412 C 328.402 186.958,328.215 187.557,327.600 188.000 C 327.137 188.333,326.800 189.035,326.800 189.665 C 326.800 190.263,326.620 190.864,326.400 191.000 C 326.180 191.136,326.000 191.676,326.000 192.200 C 326.000 192.724,325.820 193.264,325.600 193.400 C 325.380 193.536,325.200 194.076,325.200 194.600 C 325.200 195.124,325.020 195.664,324.800 195.800 C 324.580 195.936,324.400 196.487,324.400 197.024 C 324.400 197.561,324.220 198.000,324.000 198.000 C 323.410 198.000,323.496 204.630,324.100 205.680 C 324.909 207.086,327.123 209.200,327.787 209.200 C 328.124 209.200,328.400 209.380,328.400 209.600 C 328.400 209.820,329.289 210.000,330.376 210.000 C 331.463 210.000,332.464 210.180,332.600 210.400 C 332.736 210.620,334.289 210.800,336.052 210.800 C 339.286 210.800,340.400 211.231,340.400 212.483 C 340.400 212.780,340.760 213.283,341.200 213.600 C 341.640 213.917,342.000 214.497,342.000 214.888 C 342.000 215.280,342.180 215.600,342.400 215.600 C 342.620 215.600,342.800 216.320,342.800 217.200 C 342.800 218.080,342.620 218.800,342.400 218.800 C 342.180 218.800,342.000 219.342,342.000 220.005 C 342.000 220.668,341.820 221.568,341.600 222.005 C 341.380 222.442,341.020 223.158,340.800 223.595 C 340.580 224.032,340.400 224.932,340.400 225.595 C 340.400 226.258,340.220 226.800,340.000 226.800 C 339.780 226.800,339.600 227.340,339.600 228.000 C 339.600 228.660,339.420 229.200,339.200 229.200 C 338.980 229.200,338.800 229.491,338.800 229.846 C 338.800 230.593,336.097 233.200,335.322 233.200 C 335.035 233.200,334.800 233.380,334.800 233.600 C 334.800 233.849,332.475 234.000,328.624 234.000 C 324.937 234.000,322.348 233.839,322.200 233.600 C 322.064 233.380,321.243 233.200,320.376 233.200 C 319.509 233.200,318.800 233.020,318.800 232.800 C 318.800 232.580,318.260 232.400,317.600 232.400 C 316.940 232.400,316.400 232.250,316.400 232.068 C 316.400 231.885,315.905 231.481,315.300 231.170 C 314.695 230.860,313.909 230.289,313.553 229.903 C 313.197 229.516,312.689 229.200,312.425 229.200 C 311.826 229.200,310.800 228.206,310.800 227.625 C 310.800 227.387,310.260 226.628,309.600 225.937 C 308.940 225.246,308.400 224.438,308.400 224.141 C 308.400 223.843,308.220 223.600,308.000 223.600 C 307.780 223.600,307.600 223.161,307.600 222.624 C 307.600 222.087,307.420 221.536,307.200 221.400 C 306.980 221.264,306.800 220.623,306.800 219.976 C 306.800 219.329,306.620 218.800,306.400 218.800 C 306.178 218.800,306.000 217.741,306.000 216.424 C 306.000 215.117,305.820 213.936,305.600 213.800 C 305.380 213.664,305.200 212.044,305.200 210.200 C 305.200 208.356,305.380 206.736,305.600 206.600 C 305.820 206.464,306.000 205.024,306.000 203.400 C 306.000 201.776,306.180 200.336,306.400 200.200 C 306.620 200.064,306.800 198.984,306.800 197.800 C 306.800 196.616,306.980 195.536,307.200 195.400 C 307.420 195.264,307.600 194.454,307.600 193.600 C 307.600 192.746,307.780 191.936,308.000 191.800 C 308.220 191.664,308.400 191.023,308.400 190.376 C 308.400 189.729,308.580 189.200,308.800 189.200 C 309.020 189.200,309.200 188.660,309.200 188.000 C 309.200 187.340,309.380 186.800,309.600 186.800 C 309.820 186.800,310.000 186.260,310.000 185.600 C 310.000 184.940,310.180 184.400,310.400 184.400 C 310.620 184.400,310.800 183.860,310.800 183.200 C 310.800 182.540,310.980 182.000,311.200 182.000 C 311.420 182.000,311.600 181.640,311.600 181.200 C 311.600 180.760,311.780 180.400,312.000 180.400 C 312.220 180.400,312.400 180.040,312.400 179.600 C 312.400 179.160,312.580 178.800,312.800 178.800 C 313.020 178.800,313.200 178.440,313.200 178.000 C 313.200 177.560,313.380 177.200,313.600 177.200 C 313.820 177.200,314.000 176.840,314.000 176.400 C 314.000 175.960,314.180 175.600,314.400 175.600 C 314.620 175.600,314.800 175.240,314.800 174.800 C 314.800 174.360,314.980 174.000,315.200 174.000 C 315.420 174.000,315.600 173.640,315.600 173.200 C 315.600 172.760,315.780 172.400,316.000 172.400 C 316.220 172.400,316.400 172.080,316.400 171.688 C 316.400 171.297,316.760 170.717,317.200 170.400 C 317.640 170.083,318.000 169.543,318.000 169.200 C 318.000 168.857,318.360 168.317,318.800 168.000 C 319.240 167.683,319.600 167.175,319.600 166.872 C 319.600 166.569,320.140 165.817,320.800 165.200 C 321.460 164.583,322.000 163.900,322.000 163.681 C 322.000 163.113,327.850 157.200,328.412 157.200 C 328.669 157.200,329.383 156.660,330.000 156.000 C 330.617 155.340,331.409 154.800,331.760 154.800 C 332.112 154.800,332.400 154.647,332.400 154.460 C 332.400 154.150,336.355 152.077,338.800 151.104 C 339.350 150.886,340.113 150.548,340.495 150.353 C 340.877 150.159,341.631 150.000,342.171 150.000 C 342.711 150.000,343.264 149.820,343.400 149.600 C 343.536 149.380,344.321 149.200,345.144 149.200 C 345.967 149.200,346.828 149.012,347.058 148.782 C 347.331 148.509,349.895 148.425,354.438 148.540 C 363.953 148.781,365.276 149.010,368.085 150.902 C 370.691 152.658,376.053 153.787,377.051 152.789 C 377.332 152.508,378.134 152.523,379.588 152.835 C 385.510 154.105,394.587 150.114,397.438 144.987 C 400.100 140.199,400.090 140.244,399.940 133.829 C 399.839 129.517,399.662 127.820,399.300 127.700 C 399.025 127.608,398.800 127.188,398.800 126.767 C 398.800 126.345,398.620 126.000,398.400 126.000 C 398.180 126.000,398.000 125.721,398.000 125.381 C 398.000 124.574,392.226 118.800,391.419 118.800 C 391.079 118.800,390.800 118.620,390.800 118.400 C 390.800 118.180,390.440 118.000,390.000 118.000 C 389.560 118.000,389.200 117.820,389.200 117.600 C 389.200 117.380,388.840 117.200,388.400 117.200 C 387.960 117.200,387.600 117.020,387.600 116.800 C 387.600 116.580,386.880 116.400,386.000 116.400 C 385.120 116.400,384.400 116.220,384.400 116.000 C 384.400 115.780,383.860 115.600,383.200 115.600 C 382.540 115.600,382.000 115.420,382.000 115.200 C 382.000 114.980,381.291 114.800,380.424 114.800 C 379.557 114.800,378.736 114.620,378.600 114.400 C 378.464 114.180,377.564 114.000,376.600 114.000 C 375.636 114.000,374.736 113.820,374.600 113.600 C 374.464 113.380,373.384 113.200,372.200 113.200 C 371.016 113.200,369.936 113.020,369.800 112.800 C 369.664 112.580,368.213 112.400,366.576 112.400 C 364.859 112.400,363.600 112.231,363.600 112.000 C 363.600 111.743,359.541 111.600,352.224 111.600 C 345.071 111.600,340.755 111.749,340.600 112.000 M133.400 145.253 C 132.740 145.661,132.470 145.991,132.800 145.985 C 133.454 145.974,135.048 144.901,134.771 144.659 C 134.677 144.577,134.060 144.844,133.400 145.253 M15.260 145.842 C 14.962 146.178,14.799 146.532,14.895 146.629 C 14.992 146.726,15.398 146.444,15.798 146.002 C 16.197 145.561,16.361 145.207,16.162 145.215 C 15.963 145.224,15.557 145.505,15.260 145.842 M122.224 147.813 C 121.796 148.136,121.625 148.400,121.844 148.400 C 122.062 148.400,122.411 148.235,122.620 148.034 C 122.829 147.832,123.450 147.587,124.000 147.488 L 125.000 147.309 124.000 147.267 C 123.450 147.244,122.651 147.490,122.224 147.813 M116.624 148.613 C 116.196 148.936,116.025 149.200,116.244 149.200 C 116.462 149.200,116.811 149.031,117.020 148.824 C 117.229 148.617,118.300 148.380,119.400 148.296 L 121.400 148.144 119.400 148.085 C 118.177 148.049,117.098 148.254,116.624 148.613 M12.860 149.042 C 12.562 149.378,12.399 149.732,12.495 149.829 C 12.592 149.926,12.998 149.644,13.398 149.202 C 13.797 148.761,13.961 148.407,13.762 148.415 C 13.563 148.424,13.157 148.705,12.860 149.042 M110.800 149.433 C 110.184 149.775,110.038 149.990,110.420 149.994 C 110.761 149.997,111.211 149.831,111.420 149.624 C 111.629 149.417,112.700 149.180,113.800 149.096 L 115.800 148.944 113.800 148.911 C 112.700 148.893,111.350 149.128,110.800 149.433 M100.800 150.800 C 100.470 151.013,99.727 151.191,99.149 151.194 C 98.571 151.197,97.860 151.515,97.568 151.900 C 97.118 152.496,97.122 152.525,97.599 152.100 C 97.908 151.825,98.718 151.600,99.400 151.600 C 100.082 151.600,100.811 151.430,101.020 151.222 C 101.229 151.014,102.480 150.778,103.800 150.698 L 106.200 150.551 103.800 150.482 C 102.480 150.444,101.130 150.587,100.800 150.800 M10.460 152.242 C 10.162 152.578,9.999 152.932,10.095 153.029 C 10.192 153.126,10.598 152.844,10.998 152.402 C 11.397 151.961,11.561 151.607,11.362 151.615 C 11.163 151.624,10.757 151.905,10.460 152.242 M94.349 152.700 C 93.872 153.309,93.878 153.340,94.400 152.943 C 94.730 152.692,95.360 152.398,95.800 152.289 C 96.560 152.103,96.557 152.090,95.749 152.046 C 95.281 152.021,94.651 152.315,94.349 152.700 M254.200 157.600 C 253.568 158.260,253.187 158.800,253.354 158.800 C 253.671 158.800,254.223 158.277,255.149 157.098 C 256.021 155.990,255.458 156.287,254.200 157.600 M81.600 161.400 C 80.628 162.390,79.923 163.200,80.033 163.200 C 80.143 163.200,81.028 162.390,82.000 161.400 C 82.972 160.410,83.677 159.600,83.567 159.600 C 83.457 159.600,82.572 160.410,81.600 161.400 M251.775 160.900 L 250.600 162.200 251.900 161.025 C 252.615 160.379,253.200 159.794,253.200 159.725 C 253.200 159.416,252.870 159.688,251.775 160.900 M79.170 164.668 L 78.200 165.736 79.287 164.968 C 79.886 164.546,80.381 164.065,80.387 163.900 C 80.408 163.407,80.189 163.546,79.170 164.668 M212.575 172.100 L 211.400 173.400 212.798 172.200 C 213.567 171.540,214.272 170.955,214.365 170.900 C 214.457 170.845,214.357 170.800,214.142 170.800 C 213.926 170.800,213.221 171.385,212.575 172.100 M151.994 174.782 C 152.541 175.202,153.068 175.466,153.165 175.369 C 153.391 175.142,151.929 174.027,151.400 174.022 C 151.180 174.020,151.447 174.361,151.994 174.782 M0.557 176.629 C 0.415 177.195,0.465 177.825,0.668 178.028 C 0.893 178.253,1.073 177.852,1.131 176.998 C 1.241 175.359,0.926 175.157,0.557 176.629 M224.821 185.681 C 221.840 187.157,218.800 190.832,218.800 192.960 C 218.800 193.628,219.443 193.880,222.461 194.394 C 223.638 194.594,228.020 195.395,232.200 196.174 C 241.605 197.926,240.800 197.955,240.800 195.860 C 240.800 191.453,237.163 186.406,233.985 186.401 C 233.426 186.401,232.263 186.040,231.400 185.600 C 229.356 184.558,227.033 184.586,224.821 185.681 M0.536 212.622 C 0.405 212.964,0.488 213.639,0.722 214.122 C 1.103 214.912,1.149 214.850,1.173 213.500 C 1.201 211.929,0.940 211.569,0.536 212.622 M1.402 215.997 C 1.267 216.215,1.342 216.710,1.568 217.097 C 1.916 217.690,1.968 217.628,1.903 216.700 C 1.818 215.489,1.763 215.412,1.402 215.997 M3.460 222.800 C 3.595 223.570,3.853 224.362,4.032 224.559 C 4.517 225.093,4.227 223.126,3.683 222.200 C 3.281 221.515,3.249 221.601,3.460 222.800 M87.000 276.800 C 87.000 277.858,87.135 278.640,87.300 278.538 C 87.465 278.436,87.600 277.654,87.600 276.800 C 87.600 275.946,87.465 275.164,87.300 275.062 C 87.135 274.960,87.000 275.742,87.000 276.800 M234.602 275.602 C 235.002 276.044,235.411 276.322,235.512 276.221 C 235.728 276.005,234.588 274.800,234.167 274.800 C 234.007 274.800,234.203 275.161,234.602 275.602 M237.396 277.596 C 238.026 278.254,238.619 278.714,238.713 278.620 C 238.922 278.412,236.956 276.400,236.543 276.400 C 236.382 276.400,236.766 276.938,237.396 277.596 M86.158 280.027 C 86.135 280.659,86.270 281.080,86.458 280.964 C 86.880 280.704,86.910 279.315,86.500 279.063 C 86.335 278.962,86.181 279.395,86.158 280.027 M1.430 283.867 C 1.289 284.234,1.321 284.681,1.500 284.860 C 1.680 285.040,1.864 284.740,1.909 284.193 C 2.004 283.046,1.798 282.906,1.430 283.867 M84.400 284.400 C 84.400 285.147,84.507 285.253,84.880 284.880 C 85.253 284.507,85.253 284.293,84.880 283.920 C 84.507 283.547,84.400 283.653,84.400 284.400 "
			stroke="none"
			fill="#666666">
		</path>
        <path 
			d="M329.002 106.802 C 329.402 107.244,329.811 107.522,329.912 107.421 C 330.128 107.205,328.988 106.000,328.567 106.000 C 328.407 106.000,328.603 106.361,329.002 106.802 M67.000 116.000 C 66.864 116.220,65.863 116.400,64.776 116.400 C 63.689 116.400,62.800 116.580,62.800 116.800 C 62.800 117.020,62.001 117.200,61.024 117.200 C 60.047 117.200,59.136 117.380,59.000 117.600 C 58.864 117.820,58.043 118.000,57.176 118.000 C 56.309 118.000,55.600 118.180,55.600 118.400 C 55.600 118.620,55.161 118.800,54.624 118.800 C 54.087 118.800,53.536 118.980,53.400 119.200 C 53.264 119.420,52.623 119.600,51.976 119.600 C 51.329 119.600,50.800 119.780,50.800 120.000 C 50.800 120.220,50.445 120.400,50.012 120.400 C 49.579 120.400,48.583 120.760,47.800 121.200 C 47.017 121.640,46.111 122.000,45.788 122.000 C 45.465 122.000,45.200 122.180,45.200 122.400 C 45.200 122.620,44.840 122.800,44.400 122.800 C 43.960 122.800,43.600 122.980,43.600 123.200 C 43.600 123.420,43.240 123.600,42.800 123.600 C 42.360 123.600,42.000 123.780,42.000 124.000 C 42.000 124.220,41.640 124.400,41.200 124.400 C 40.760 124.400,40.400 124.580,40.400 124.800 C 40.400 125.020,40.040 125.200,39.600 125.200 C 39.160 125.200,38.800 125.380,38.800 125.600 C 38.800 125.820,38.552 126.000,38.249 126.000 C 37.946 126.000,37.466 126.279,37.184 126.620 C 36.901 126.961,35.934 127.575,35.035 127.985 C 34.136 128.396,32.964 129.197,32.430 129.766 C 31.897 130.335,31.256 130.800,31.005 130.800 C 30.755 130.800,30.032 131.340,29.400 132.000 C 28.768 132.660,28.059 133.201,27.825 133.202 C 27.266 133.204,18.800 141.401,18.800 141.939 C 18.800 142.168,18.260 142.674,17.600 143.064 C 16.831 143.518,16.400 144.096,16.400 144.674 C 16.400 145.212,15.916 145.934,15.200 146.463 C 14.540 146.951,14.000 147.671,14.000 148.063 C 14.000 148.455,13.460 149.175,12.800 149.663 C 12.140 150.151,11.600 150.849,11.600 151.213 C 11.600 151.578,11.240 152.202,10.800 152.600 C 10.360 152.998,9.996 153.521,9.991 153.762 C 9.986 154.003,9.630 154.650,9.200 155.200 C 8.770 155.750,8.414 156.515,8.409 156.900 C 8.404 157.285,8.220 157.600,8.000 157.600 C 7.780 157.600,7.600 157.811,7.600 158.069 C 7.600 158.326,7.361 158.821,7.069 159.169 C 6.777 159.516,6.322 160.557,6.058 161.482 C 5.794 162.407,5.358 163.402,5.089 163.692 C 4.820 163.982,4.541 164.483,4.468 164.806 C 4.395 165.128,4.215 165.484,4.068 165.596 C 3.921 165.708,3.738 166.250,3.662 166.800 C 3.586 167.350,3.353 167.863,3.145 167.939 C 2.927 168.019,2.964 168.316,3.232 168.639 C 3.568 169.044,3.573 169.200,3.249 169.200 C 3.002 169.200,2.800 169.455,2.800 169.767 C 2.800 170.078,2.575 170.425,2.300 170.536 C 1.924 170.689,1.948 170.844,2.400 171.163 C 2.730 171.397,2.804 171.591,2.564 171.594 C 1.842 171.604,1.107 173.606,1.605 174.206 C 1.893 174.553,1.899 174.768,1.623 174.861 C 1.397 174.937,1.181 175.857,1.141 176.905 C 1.102 177.953,0.840 179.001,0.559 179.234 C -0.244 179.900,-0.183 210.560,0.622 211.365 C 0.957 211.700,1.200 212.710,1.200 213.771 C 1.200 214.777,1.341 215.600,1.513 215.600 C 1.685 215.600,1.866 216.095,1.916 216.700 C 1.966 217.305,2.179 217.858,2.389 217.929 C 2.617 218.005,2.587 218.351,2.315 218.787 C 1.953 219.368,2.003 219.660,2.563 220.220 C 3.351 221.009,4.048 222.548,4.226 223.895 C 4.361 224.914,5.293 227.699,5.600 228.000 C 6.008 228.399,8.400 233.460,8.400 233.924 C 8.400 234.186,8.580 234.400,8.800 234.400 C 9.020 234.400,9.200 234.655,9.200 234.967 C 9.200 235.278,9.366 235.593,9.570 235.667 C 9.773 235.740,9.998 236.066,10.070 236.390 C 10.141 236.715,10.427 237.225,10.704 237.523 C 10.981 237.821,11.125 238.197,11.025 238.359 C 10.925 238.522,11.193 238.907,11.621 239.215 C 12.050 239.524,12.400 239.980,12.400 240.229 C 12.400 240.478,12.940 241.246,13.600 241.937 C 14.260 242.628,14.800 243.335,14.800 243.509 C 14.800 243.683,15.880 244.894,17.200 246.200 C 18.520 247.506,19.600 248.767,19.600 249.003 C 19.600 249.539,23.286 253.200,23.826 253.200 C 24.046 253.200,25.294 254.280,26.600 255.600 C 27.906 256.920,29.127 258.000,29.313 258.000 C 29.500 258.000,30.529 258.900,31.600 260.000 C 32.671 261.100,33.795 262.000,34.098 262.000 C 34.400 262.000,35.267 262.716,36.024 263.591 C 36.781 264.466,37.678 265.186,38.019 265.191 C 38.359 265.196,39.341 265.920,40.200 266.800 C 41.059 267.680,41.959 268.400,42.200 268.400 C 42.441 268.400,43.341 269.120,44.200 270.000 C 45.059 270.880,45.996 271.600,46.281 271.600 C 46.567 271.600,46.800 271.756,46.800 271.946 C 46.800 273.324,73.585 274.575,74.901 273.259 C 75.363 272.797,74.958 272.000,74.261 272.000 C 73.991 272.000,72.883 271.100,71.800 270.000 C 70.717 268.900,69.635 268.000,69.396 268.000 C 69.158 268.000,68.259 267.280,67.400 266.400 C 66.541 265.520,65.641 264.800,65.400 264.800 C 65.159 264.800,64.259 264.080,63.400 263.200 C 62.541 262.320,61.641 261.600,61.400 261.600 C 61.159 261.600,60.259 260.880,59.400 260.000 C 58.541 259.120,57.644 258.400,57.406 258.400 C 57.169 258.400,55.906 257.320,54.600 256.000 C 53.294 254.680,52.036 253.600,51.805 253.600 C 51.263 253.600,44.000 246.317,44.000 245.774 C 44.000 245.547,43.280 244.659,42.400 243.800 C 41.520 242.941,40.800 242.032,40.800 241.781 C 40.800 241.530,40.440 240.998,40.000 240.600 C 39.560 240.202,39.200 239.662,39.200 239.400 C 39.200 239.138,38.840 238.598,38.400 238.200 C 37.960 237.802,37.600 237.293,37.600 237.070 C 37.600 236.846,37.344 236.379,37.031 236.031 C 36.211 235.122,31.733 226.104,30.837 223.558 C 30.420 222.371,29.789 220.726,29.435 219.902 C 29.081 219.078,28.793 218.268,28.795 218.102 C 28.805 217.327,28.264 214.958,27.995 214.600 C 27.830 214.380,27.604 213.570,27.493 212.800 C 27.382 212.030,27.000 209.870,26.643 208.000 C 24.482 196.677,25.897 180.398,30.050 168.800 C 32.077 163.140,32.356 162.463,33.807 159.681 C 35.301 156.817,35.268 156.872,38.000 152.609 C 38.990 151.064,39.890 149.601,40.000 149.358 C 40.727 147.754,54.207 133.600,55.008 133.600 C 55.251 133.600,55.968 133.060,56.600 132.400 C 57.232 131.740,57.958 131.200,58.213 131.200 C 58.468 131.200,59.002 130.840,59.400 130.400 C 59.798 129.960,60.338 129.600,60.600 129.600 C 60.862 129.600,61.402 129.240,61.800 128.800 C 62.198 128.360,62.744 128.000,63.013 128.000 C 63.282 128.000,63.716 127.742,63.978 127.426 C 64.518 126.776,73.147 122.400,73.891 122.400 C 74.157 122.400,75.017 122.040,75.800 121.600 C 76.583 121.160,77.568 120.800,77.989 120.800 C 78.409 120.800,78.864 120.620,79.000 120.400 C 79.136 120.180,79.856 120.000,80.600 120.000 C 81.344 120.000,82.064 119.820,82.200 119.600 C 82.336 119.380,82.876 119.200,83.400 119.200 C 83.924 119.200,84.464 119.020,84.600 118.800 C 84.736 118.580,85.618 118.400,86.559 118.400 C 88.224 118.400,89.200 117.506,89.200 115.981 C 89.200 115.452,67.327 115.470,67.000 116.000 M276.862 120.331 C 274.677 121.675,274.032 122.846,274.014 125.505 C 273.995 128.296,275.658 131.200,277.275 131.200 C 277.680 131.200,278.353 131.414,278.772 131.675 C 279.714 132.263,282.522 131.485,283.910 130.251 C 289.509 125.273,283.220 116.422,276.862 120.331 M128.100 146.676 C 128.485 146.776,129.115 146.776,129.500 146.676 C 129.885 146.575,129.570 146.493,128.800 146.493 C 128.030 146.493,127.715 146.575,128.100 146.676 M257.200 147.512 C 257.200 147.903,256.840 148.483,256.400 148.800 C 255.745 149.272,255.600 149.835,255.600 151.917 C 255.600 154.678,255.773 154.971,258.110 156.165 C 258.934 156.586,260.310 157.531,261.168 158.265 C 262.025 158.999,262.867 159.600,263.038 159.600 C 263.209 159.600,263.743 159.971,264.225 160.424 C 266.832 162.873,272.000 161.341,272.000 158.120 C 272.000 156.246,269.797 152.800,268.600 152.800 C 268.352 152.800,267.632 152.260,267.000 151.600 C 266.368 150.940,265.630 150.400,265.361 150.400 C 264.731 150.400,262.800 148.115,262.800 147.369 C 262.800 146.931,262.155 146.800,260.000 146.800 C 257.582 146.800,257.200 146.897,257.200 147.512 M104.000 149.981 L 101.000 150.217 103.722 150.409 C 105.218 150.514,106.568 150.477,106.722 150.327 C 106.875 150.176,107.720 149.982,108.600 149.894 L 110.200 149.734 108.600 149.739 C 107.720 149.742,105.650 149.851,104.000 149.981 M84.460 158.251 C 83.943 158.802,83.596 159.329,83.689 159.422 C 83.782 159.515,84.374 159.054,85.004 158.396 C 85.634 157.738,85.981 157.211,85.775 157.224 C 85.569 157.238,84.977 157.700,84.460 158.251 M245.467 162.267 C 245.320 162.413,245.200 162.857,245.200 163.253 C 245.200 163.648,244.840 164.165,244.400 164.400 C 243.940 164.646,243.600 165.238,243.600 165.790 C 243.600 166.320,243.444 166.849,243.254 166.967 C 242.820 167.235,244.449 170.757,245.019 170.782 C 245.249 170.792,246.141 171.520,247.000 172.400 C 247.859 173.280,248.762 174.000,249.006 174.000 C 249.251 174.000,249.968 174.540,250.600 175.200 C 251.232 175.860,251.958 176.400,252.213 176.400 C 252.468 176.400,253.002 176.760,253.400 177.200 C 254.159 178.039,255.574 178.257,256.220 177.634 C 256.429 177.432,257.036 177.207,257.570 177.134 C 259.058 176.928,260.992 172.800,259.600 172.800 C 259.380 172.800,259.200 172.526,259.200 172.191 C 259.200 171.515,255.055 167.200,254.405 167.200 C 254.178 167.200,253.428 166.660,252.737 166.000 C 252.046 165.340,251.219 164.800,250.897 164.800 C 250.474 164.800,250.382 164.525,250.564 163.800 C 250.767 162.991,250.667 162.800,250.041 162.800 C 249.615 162.800,249.198 162.595,249.115 162.346 C 249.007 162.021,248.714 162.047,248.092 162.435 C 247.404 162.865,247.117 162.877,246.730 162.490 C 246.177 161.937,245.854 161.880,245.467 162.267 M106.800 173.502 C 106.800 173.669,106.256 174.046,105.591 174.340 C 103.959 175.062,102.971 176.978,103.561 178.274 C 103.844 178.894,104.000 182.929,104.000 189.595 C 104.000 196.069,104.150 200.045,104.400 200.200 C 104.620 200.336,104.800 200.889,104.800 201.429 C 104.800 204.093,110.483 204.991,112.722 202.681 L 114.000 201.362 114.000 190.105 C 114.000 183.031,114.149 178.755,114.400 178.600 C 115.322 178.030,114.786 176.148,113.283 174.681 C 111.830 173.262,106.800 172.348,106.800 173.502 M144.624 173.724 C 142.452 175.056,140.862 178.400,142.400 178.400 C 142.657 178.400,142.800 182.462,142.800 189.786 L 142.800 201.172 144.041 202.586 C 145.141 203.838,145.504 204.000,147.215 204.000 C 152.527 204.000,152.797 203.315,152.799 189.831 C 152.800 180.804,152.897 178.955,153.402 178.397 C 155.729 175.827,147.947 171.684,144.624 173.724 M183.000 173.953 C 182.340 174.336,181.622 175.042,181.405 175.524 C 181.188 176.006,180.918 176.400,180.805 176.400 C 180.471 176.399,180.837 199.760,181.178 200.199 C 181.349 200.419,181.605 201.082,181.745 201.671 C 182.358 204.241,187.799 204.943,189.722 202.700 L 190.837 201.400 190.957 190.200 C 191.024 184.040,191.218 178.401,191.389 177.668 C 192.166 174.344,186.590 171.875,183.000 173.953 M210.271 174.326 C 209.682 174.941,209.200 175.596,209.200 175.781 C 209.200 175.967,209.755 175.537,210.434 174.827 C 211.113 174.117,211.595 173.462,211.505 173.372 C 211.415 173.282,210.860 173.711,210.271 174.326 M167.000 252.000 C 166.864 252.220,165.604 252.400,164.200 252.400 C 162.796 252.400,161.536 252.580,161.400 252.800 C 161.264 253.021,159.470 253.200,157.400 253.200 C 155.330 253.200,153.536 253.379,153.400 253.600 C 153.264 253.820,151.489 254.000,149.456 254.000 C 147.423 254.000,145.588 254.172,145.378 254.382 C 144.691 255.069,108.910 255.870,108.253 255.213 C 108.006 254.966,105.418 254.800,101.800 254.800 C 98.478 254.800,95.589 254.632,95.380 254.427 C 95.171 254.222,93.380 253.957,91.400 253.837 C 89.420 253.717,86.495 253.510,84.900 253.377 C 81.283 253.074,81.203 253.396,84.000 257.000 C 85.100 258.417,86.000 259.855,86.000 260.194 C 86.000 260.792,86.165 261.214,87.138 263.095 C 87.706 264.195,87.759 271.855,87.200 272.200 C 86.980 272.336,86.800 272.977,86.800 273.624 L 86.800 274.800 117.843 274.800 C 144.565 274.800,148.855 274.721,148.667 274.229 C 148.335 273.364,149.173 272.908,151.600 272.634 C 152.810 272.498,155.240 272.206,157.000 271.985 C 158.760 271.764,161.107 271.483,162.216 271.360 L 164.232 271.136 165.916 267.638 C 166.842 265.714,167.600 263.954,167.600 263.726 C 167.600 263.497,168.320 261.911,169.200 260.200 C 170.080 258.489,170.800 256.754,170.800 256.345 C 170.800 255.935,170.980 255.600,171.200 255.600 C 171.420 255.600,171.600 255.251,171.600 254.824 C 171.600 254.397,171.780 253.936,172.000 253.800 C 172.220 253.664,172.400 253.113,172.400 252.576 C 172.400 251.533,167.605 251.021,167.000 252.000 M212.900 268.862 C 210.865 270.871,209.200 272.752,209.200 273.043 C 209.200 273.613,218.000 273.888,237.300 273.921 C 243.822 273.932,246.800 274.072,246.800 274.368 C 246.800 274.641,247.977 274.800,250.000 274.800 C 251.867 274.800,253.200 274.967,253.200 275.200 C 253.200 275.429,254.400 275.600,256.000 275.600 C 257.600 275.600,258.800 275.771,258.800 276.000 C 258.800 276.233,260.133 276.400,262.000 276.400 C 263.867 276.400,265.200 276.567,265.200 276.800 C 265.200 277.033,266.533 277.200,268.400 277.200 C 270.267 277.200,271.600 277.367,271.600 277.600 C 271.600 277.833,272.933 278.000,274.800 278.000 C 276.667 278.000,278.000 278.167,278.000 278.400 C 278.000 278.633,279.333 278.800,281.200 278.800 C 283.067 278.800,284.400 278.967,284.400 279.200 C 284.400 279.428,285.592 279.600,287.176 279.600 C 288.703 279.600,290.064 279.780,290.200 280.000 C 290.336 280.220,291.787 280.400,293.424 280.400 C 295.141 280.400,296.400 280.569,296.400 280.800 C 296.400 281.028,297.592 281.200,299.176 281.200 C 300.703 281.200,302.064 281.380,302.200 281.600 C 302.336 281.820,303.776 282.000,305.400 282.000 C 307.024 282.000,308.464 282.180,308.600 282.400 C 308.736 282.620,310.187 282.800,311.824 282.800 C 313.541 282.800,314.800 282.969,314.800 283.200 C 314.800 283.433,316.125 283.600,317.976 283.600 C 319.723 283.600,321.264 283.780,321.400 284.000 C 321.536 284.220,322.987 284.400,324.624 284.400 C 326.341 284.400,327.600 284.569,327.600 284.800 C 327.600 285.033,328.933 285.200,330.800 285.200 C 332.667 285.200,334.000 285.367,334.000 285.600 C 334.000 285.833,335.333 286.000,337.200 286.000 C 339.067 286.000,340.400 286.167,340.400 286.400 C 340.400 286.629,341.600 286.800,343.200 286.800 C 344.800 286.800,346.000 286.971,346.000 287.200 C 346.000 287.449,348.267 287.600,352.000 287.600 C 355.733 287.600,358.000 287.449,358.000 287.200 C 358.000 286.980,358.720 286.800,359.600 286.800 C 360.480 286.800,361.200 286.620,361.200 286.400 C 361.200 286.180,361.560 286.000,362.000 286.000 C 362.440 286.000,362.800 285.820,362.800 285.600 C 362.800 285.380,363.160 285.200,363.600 285.200 C 364.040 285.200,364.400 285.020,364.400 284.800 C 364.400 284.580,364.688 284.400,365.040 284.400 C 365.880 284.400,368.000 282.113,368.000 281.207 C 368.000 279.970,366.770 279.408,363.439 279.122 C 360.486 278.868,358.679 278.651,350.800 277.603 C 349.370 277.413,347.210 277.153,346.000 277.025 C 343.584 276.769,343.676 276.781,334.800 275.623 C 331.390 275.179,327.520 274.708,326.200 274.577 C 323.052 274.264,317.743 273.657,314.000 273.182 C 312.350 272.973,309.740 272.693,308.200 272.560 C 306.660 272.427,305.229 272.157,305.020 271.959 C 304.811 271.762,303.337 271.600,301.744 271.600 C 300.151 271.600,298.736 271.420,298.600 271.200 C 298.464 270.980,297.204 270.800,295.800 270.800 C 294.396 270.800,293.136 270.620,293.000 270.400 C 292.864 270.180,291.424 270.000,289.800 270.000 C 288.176 270.000,286.736 269.820,286.600 269.600 C 286.464 269.380,285.049 269.200,283.456 269.200 C 281.863 269.200,280.389 269.034,280.180 268.831 C 279.971 268.628,278.540 268.365,277.000 268.245 C 275.460 268.126,272.715 267.842,270.900 267.614 C 269.085 267.386,266.115 267.014,264.300 266.786 C 262.485 266.558,259.740 266.274,258.200 266.155 C 256.660 266.035,255.229 265.772,255.020 265.569 C 254.799 265.354,246.696 265.202,235.620 265.205 L 216.600 265.211 212.900 268.862 M15.800 272.800 C 15.664 273.020,15.042 273.200,14.417 273.200 C 13.104 273.200,8.994 275.254,7.990 276.412 C 7.614 276.845,7.147 277.206,6.953 277.213 C 6.398 277.234,4.661 278.794,4.913 279.046 C 5.037 279.170,4.612 279.822,3.969 280.495 C 3.326 281.168,2.800 281.947,2.800 282.226 C 2.800 282.505,2.622 282.793,2.403 282.867 C 2.185 282.940,1.966 283.495,1.916 284.100 C 1.866 284.705,1.685 285.200,1.513 285.200 C 1.341 285.200,1.200 285.663,1.200 286.229 C 1.200 286.794,0.950 287.507,0.645 287.812 C 0.055 288.402,-0.287 296.787,0.225 298.122 C 0.463 298.740,1.640 298.800,13.619 298.800 L 26.752 298.800 26.935 294.300 C 27.136 289.393,27.491 286.914,28.044 286.573 C 28.240 286.452,28.400 286.024,28.400 285.622 C 28.400 283.377,31.641 279.277,35.200 277.017 C 36.190 276.389,37.450 275.576,38.000 275.210 C 38.550 274.845,39.290 274.438,39.644 274.307 C 39.999 274.175,40.387 273.692,40.507 273.234 C 40.751 272.299,16.374 271.871,15.800 272.800 M83.600 286.000 C 83.600 286.747,83.707 286.853,84.080 286.480 C 84.453 286.107,84.453 285.893,84.080 285.520 C 83.707 285.147,83.600 285.253,83.600 286.000 "
			stroke="none" 
			fill="#049c64">
		</path>
        <path
			d="M302.800 101.580 C 302.470 101.763,301.300 102.338,300.200 102.857 C 299.100 103.375,298.140 103.935,298.067 104.100 C 297.993 104.265,297.601 104.400,297.194 104.400 C 296.787 104.400,296.070 104.940,295.600 105.600 C 295.130 106.260,294.484 106.800,294.164 106.800 C 293.844 106.800,292.679 107.694,291.575 108.787 L 289.566 110.775 288.309 109.573 C 287.617 108.912,286.836 108.454,286.572 108.556 C 286.308 108.657,285.756 108.522,285.346 108.256 C 284.936 107.989,283.707 107.723,282.615 107.664 C 281.523 107.605,280.390 107.358,280.098 107.115 C 279.709 106.792,279.442 106.798,279.103 107.137 C 278.848 107.392,277.956 107.600,277.120 107.600 C 276.284 107.600,275.600 107.780,275.600 108.000 C 275.600 108.220,274.700 108.400,273.600 108.400 C 272.500 108.400,271.600 108.580,271.600 108.800 C 271.600 109.020,271.317 109.200,270.971 109.200 C 270.163 109.200,269.200 110.163,269.200 110.971 C 269.200 111.317,268.909 111.600,268.554 111.600 C 267.807 111.600,265.200 114.303,265.200 115.078 C 265.200 115.365,264.943 115.600,264.629 115.600 C 263.997 115.600,262.800 117.719,262.800 118.838 C 262.800 119.231,262.620 119.664,262.400 119.800 C 262.180 119.936,262.000 120.667,262.000 121.424 C 262.000 122.181,261.820 122.800,261.600 122.800 C 261.363 122.800,261.200 124.259,261.200 126.376 C 261.200 128.343,261.380 130.064,261.600 130.200 C 261.820 130.336,262.004 130.932,262.009 131.524 C 262.014 132.116,262.370 133.050,262.800 133.600 C 263.230 134.150,263.586 134.797,263.591 135.039 C 263.608 135.855,264.816 137.921,265.410 138.148 C 265.734 138.273,266.000 138.681,266.000 139.056 C 266.000 139.431,266.281 140.047,266.624 140.426 C 267.194 141.057,267.160 141.204,266.224 142.140 C 265.661 142.703,265.200 143.370,265.200 143.621 C 265.200 143.873,264.660 144.583,264.000 145.200 C 262.318 146.771,263.268 150.400,265.361 150.400 C 265.630 150.400,266.368 150.940,267.000 151.600 C 267.632 152.260,268.352 152.800,268.600 152.800 C 269.797 152.800,272.000 156.246,272.000 158.120 C 272.000 161.341,266.832 162.873,264.225 160.424 C 263.743 159.971,263.209 159.600,263.038 159.600 C 262.867 159.600,261.999 158.977,261.109 158.215 C 258.144 155.677,255.600 154.776,255.600 156.263 C 255.600 156.602,255.060 157.383,254.400 158.000 C 253.740 158.617,253.200 159.265,253.200 159.441 C 253.200 159.618,252.679 160.310,252.041 160.981 C 250.702 162.390,249.988 164.800,250.909 164.800 C 251.224 164.800,252.046 165.340,252.737 166.000 C 253.428 166.660,254.178 167.200,254.405 167.200 C 255.055 167.200,259.200 171.515,259.200 172.191 C 259.200 172.526,259.380 172.800,259.600 172.800 C 260.992 172.800,259.058 176.928,257.570 177.134 C 257.036 177.207,256.429 177.432,256.220 177.634 C 255.574 178.257,254.159 178.039,253.400 177.200 C 253.002 176.760,252.468 176.400,252.213 176.400 C 251.958 176.400,251.232 175.860,250.600 175.200 C 249.968 174.540,249.251 174.000,249.006 174.000 C 248.762 174.000,247.859 173.280,247.000 172.400 C 246.141 171.520,245.240 170.800,244.999 170.800 C 244.533 170.800,243.362 168.066,243.548 167.411 C 243.609 167.197,243.317 167.332,242.898 167.711 C 242.074 168.457,238.800 168.688,238.800 168.000 C 238.800 167.780,238.080 167.600,237.200 167.600 C 236.320 167.600,235.600 167.420,235.600 167.200 C 235.600 166.980,234.621 166.800,233.424 166.800 C 232.227 166.800,231.136 166.620,231.000 166.400 C 230.864 166.180,230.144 166.000,229.400 166.000 C 228.656 166.000,227.936 166.180,227.800 166.400 C 227.664 166.620,226.433 166.800,225.065 166.800 C 223.579 166.800,222.256 167.026,221.777 167.361 C 221.337 167.669,220.244 168.119,219.349 168.360 C 218.453 168.601,217.109 169.244,216.360 169.789 C 215.612 170.334,214.637 170.944,214.193 171.145 C 213.749 171.345,212.405 172.610,211.207 173.955 L 209.029 176.400 205.529 176.400 C 202.438 176.400,201.978 176.494,201.600 177.200 C 201.208 177.932,200.762 178.000,196.376 178.000 L 191.580 178.000 191.178 179.057 C 190.942 179.679,190.794 184.488,190.818 190.757 L 190.860 201.400 189.734 202.700 C 187.792 204.941,182.358 204.241,181.745 201.671 C 181.605 201.082,181.338 200.405,181.152 200.167 C 180.966 199.929,180.765 194.889,180.707 188.967 L 180.600 178.200 167.248 178.095 C 157.727 178.019,153.738 178.119,153.348 178.444 C 152.909 178.808,152.800 181.055,152.799 189.749 C 152.797 203.326,152.533 204.000,147.215 204.000 C 145.504 204.000,145.141 203.838,144.041 202.586 L 142.800 201.172 142.800 189.829 C 142.800 179.854,142.724 178.456,142.167 178.243 C 140.883 177.750,114.988 177.972,114.480 178.480 C 114.129 178.831,114.000 181.991,114.000 190.202 L 114.000 201.443 112.681 202.722 C 110.360 204.972,104.800 204.060,104.800 201.429 C 104.800 200.889,104.620 200.336,104.400 200.200 C 104.150 200.046,104.000 196.073,104.000 189.609 C 104.000 183.920,103.891 178.981,103.757 178.633 C 103.542 178.072,101.868 178.000,89.025 178.000 L 74.536 178.000 74.568 176.100 C 74.586 175.055,74.814 174.062,75.076 173.894 C 75.338 173.725,75.481 173.221,75.395 172.774 C 75.309 172.326,75.482 171.867,75.779 171.753 C 76.089 171.634,76.320 170.956,76.320 170.169 C 76.320 169.214,76.607 168.554,77.260 168.010 C 77.777 167.579,78.043 167.221,77.851 167.213 C 77.659 167.206,77.741 166.912,78.033 166.560 C 78.326 166.207,78.605 165.649,78.653 165.318 C 78.702 164.987,79.118 164.453,79.577 164.131 C 80.037 163.809,80.325 163.402,80.217 163.228 C 79.968 162.825,86.297 156.400,86.943 156.400 C 87.207 156.400,87.683 156.040,88.000 155.600 C 88.317 155.160,88.886 154.800,89.265 154.800 C 89.643 154.800,90.066 154.617,90.204 154.393 C 90.342 154.170,90.602 154.078,90.782 154.189 C 90.962 154.300,91.332 154.123,91.604 153.796 C 91.876 153.468,92.331 153.200,92.616 153.200 C 92.900 153.200,93.200 152.999,93.282 152.753 C 93.364 152.507,94.283 152.270,95.323 152.226 C 96.363 152.182,97.427 151.933,97.687 151.673 C 97.947 151.413,98.651 151.200,99.251 151.200 C 99.852 151.200,100.586 150.957,100.883 150.660 C 101.238 150.305,103.069 150.018,106.212 149.825 C 108.845 149.663,111.210 149.356,111.467 149.143 C 111.724 148.930,112.929 148.796,114.145 148.846 C 115.430 148.898,116.602 148.730,116.945 148.446 C 117.288 148.161,118.460 147.994,119.745 148.046 C 120.961 148.095,122.190 147.940,122.478 147.702 C 122.765 147.465,123.810 147.172,124.800 147.053 C 129.758 146.457,130.706 146.285,132.000 145.745 C 134.557 144.677,135.392 144.093,136.293 142.741 C 136.784 142.003,137.369 141.183,137.593 140.917 C 137.817 140.651,138.000 140.077,138.000 139.640 C 138.000 139.204,138.180 138.736,138.400 138.600 C 138.620 138.464,138.800 137.204,138.800 135.800 C 138.800 134.396,138.620 133.136,138.400 133.000 C 138.180 132.864,138.000 132.313,138.000 131.776 C 138.000 131.239,137.820 130.800,137.600 130.800 C 137.380 130.800,137.199 130.575,137.198 130.300 C 137.195 129.574,133.705 126.000,132.999 126.000 C 132.669 126.000,132.400 125.820,132.400 125.600 C 132.400 125.380,131.806 125.200,131.080 125.200 C 129.701 125.200,127.609 124.417,127.603 123.900 C 127.601 123.735,126.700 123.600,125.600 123.600 C 124.500 123.600,123.600 123.420,123.600 123.200 C 123.600 122.980,122.891 122.800,122.024 122.800 C 121.157 122.800,120.336 122.620,120.200 122.400 C 120.064 122.180,119.164 122.000,118.200 122.000 C 117.236 122.000,116.336 121.820,116.200 121.600 C 116.064 121.380,115.333 121.200,114.576 121.200 C 113.819 121.200,113.200 121.020,113.200 120.800 C 113.200 120.580,112.300 120.400,111.200 120.400 C 110.100 120.400,109.200 120.220,109.200 120.000 C 109.200 119.780,108.480 119.600,107.600 119.600 C 106.720 119.600,106.000 119.420,106.000 119.200 C 106.000 118.980,105.111 118.800,104.024 118.800 C 102.937 118.800,101.936 118.620,101.800 118.400 C 101.664 118.180,100.944 118.000,100.200 118.000 C 99.456 118.000,98.736 117.820,98.600 117.600 C 98.464 117.380,97.384 117.200,96.200 117.200 C 95.016 117.200,93.936 117.020,93.800 116.800 C 93.221 115.863,89.211 116.337,88.727 117.400 C 88.345 118.240,87.998 118.400,86.559 118.400 C 85.618 118.400,84.736 118.580,84.600 118.800 C 84.464 119.020,83.924 119.200,83.400 119.200 C 82.876 119.200,82.336 119.380,82.200 119.600 C 82.064 119.820,81.344 120.000,80.600 120.000 C 79.856 120.000,79.136 120.180,79.000 120.400 C 78.864 120.620,78.409 120.800,77.989 120.800 C 77.568 120.800,76.583 121.160,75.800 121.600 C 75.017 122.040,74.157 122.400,73.891 122.400 C 73.147 122.400,64.518 126.776,63.978 127.426 C 63.716 127.742,63.282 128.000,63.013 128.000 C 62.744 128.000,62.198 128.360,61.800 128.800 C 61.402 129.240,60.862 129.600,60.600 129.600 C 60.338 129.600,59.798 129.960,59.400 130.400 C 59.002 130.840,58.468 131.200,58.213 131.200 C 57.958 131.200,57.232 131.740,56.600 132.400 C 55.968 133.060,55.251 133.600,55.008 133.600 C 54.207 133.600,40.727 147.754,40.000 149.358 C 39.890 149.601,38.990 151.064,38.000 152.609 C 35.268 156.872,35.301 156.817,33.807 159.681 C 32.356 162.463,32.077 163.140,30.050 168.800 C 25.897 180.398,24.482 196.677,26.643 208.000 C 27.000 209.870,27.382 212.030,27.493 212.800 C 27.604 213.570,27.830 214.380,27.995 214.600 C 28.259 214.952,28.872 217.649,28.813 218.199 C 28.801 218.311,29.081 219.078,29.435 219.902 C 29.789 220.726,30.420 222.371,30.837 223.558 C 31.733 226.104,36.211 235.122,37.031 236.031 C 37.344 236.379,37.600 236.846,37.600 237.070 C 37.600 237.293,37.960 237.802,38.400 238.200 C 38.840 238.598,39.200 239.138,39.200 239.400 C 39.200 239.662,39.560 240.202,40.000 240.600 C 40.440 240.998,40.800 241.530,40.800 241.781 C 40.800 242.032,41.520 242.941,42.400 243.800 C 43.280 244.659,44.000 245.554,44.000 245.789 C 44.000 246.332,51.277 253.600,51.820 253.600 C 52.043 253.600,53.294 254.680,54.600 256.000 C 55.906 257.320,57.169 258.400,57.406 258.400 C 57.644 258.400,58.541 259.120,59.400 260.000 C 60.259 260.880,61.159 261.600,61.400 261.600 C 61.641 261.600,62.541 262.320,63.400 263.200 C 64.259 264.080,65.159 264.800,65.400 264.800 C 65.641 264.800,66.541 265.520,67.400 266.400 C 68.259 267.280,69.158 268.000,69.396 268.000 C 69.635 268.000,70.717 268.900,71.800 270.000 C 72.883 271.100,73.991 272.000,74.261 272.000 C 74.958 272.000,75.363 272.797,74.902 273.258 C 74.238 273.922,52.379 273.689,49.694 272.989 C 45.758 271.964,40.864 272.180,40.400 273.400 C 40.191 273.950,39.828 274.400,39.594 274.400 C 39.359 274.400,38.680 274.732,38.084 275.137 C 37.488 275.543,36.190 276.389,35.200 277.017 C 31.641 279.277,28.400 283.377,28.400 285.622 C 28.400 286.024,28.240 286.452,28.044 286.573 C 27.491 286.914,27.136 289.393,26.935 294.300 L 26.752 298.800 47.552 298.800 C 60.988 298.800,68.440 298.658,68.600 298.400 C 68.736 298.180,69.287 298.000,69.824 298.000 C 70.361 298.000,70.800 297.820,70.800 297.600 C 70.800 297.380,71.158 297.200,71.597 297.200 C 72.035 297.200,72.618 296.840,72.893 296.400 C 73.168 295.960,73.591 295.600,73.834 295.600 C 74.077 295.600,74.602 295.240,75.000 294.800 C 75.398 294.360,75.907 294.000,76.130 294.000 C 76.668 294.000,82.200 288.714,82.200 288.200 C 82.200 287.980,82.515 287.509,82.900 287.153 C 83.285 286.797,83.600 286.212,83.600 285.853 C 83.600 285.494,83.780 285.200,84.000 285.200 C 84.220 285.200,84.400 284.855,84.400 284.433 C 84.400 284.012,84.603 283.599,84.850 283.517 C 85.098 283.434,85.300 282.879,85.300 282.283 C 85.300 281.688,85.458 281.200,85.650 281.200 C 85.843 281.200,86.000 280.679,86.000 280.043 C 86.000 279.380,86.258 278.787,86.604 278.654 C 87.097 278.465,87.166 277.876,86.981 275.449 C 86.837 273.552,86.908 272.381,87.177 272.214 C 87.721 271.878,87.740 264.267,87.200 263.195 C 86.980 262.758,86.620 262.042,86.400 261.605 C 86.180 261.168,86.000 260.533,86.000 260.194 C 86.000 259.855,85.100 258.417,84.000 257.000 C 81.203 253.396,81.283 253.074,84.900 253.377 C 86.495 253.510,89.420 253.717,91.400 253.837 C 93.380 253.957,95.171 254.222,95.380 254.427 C 95.589 254.632,98.478 254.800,101.800 254.800 C 105.418 254.800,108.006 254.966,108.253 255.213 C 108.910 255.870,144.691 255.069,145.378 254.382 C 145.588 254.172,147.423 254.000,149.456 254.000 C 151.489 254.000,153.264 253.820,153.400 253.600 C 153.536 253.379,155.330 253.200,157.400 253.200 C 159.470 253.200,161.264 253.021,161.400 252.800 C 161.536 252.580,162.796 252.400,164.200 252.400 C 165.604 252.400,166.864 252.220,167.000 252.000 C 167.605 251.021,172.400 251.533,172.400 252.576 C 172.400 253.113,172.220 253.664,172.000 253.800 C 171.780 253.936,171.600 254.397,171.600 254.824 C 171.600 255.251,171.420 255.600,171.200 255.600 C 170.980 255.600,170.800 255.935,170.800 256.345 C 170.800 256.754,170.080 258.489,169.200 260.200 C 168.320 261.911,167.600 263.497,167.600 263.726 C 167.600 263.954,166.842 265.714,165.916 267.638 L 164.232 271.136 162.216 271.360 C 161.107 271.483,158.760 271.764,157.000 271.985 C 155.240 272.206,152.810 272.498,151.600 272.634 C 149.173 272.908,148.335 273.364,148.667 274.229 C 148.845 274.695,150.229 274.800,156.163 274.800 C 164.310 274.800,164.400 274.829,164.400 277.456 C 164.400 278.389,164.580 279.264,164.800 279.400 C 165.020 279.536,165.200 280.177,165.200 280.824 C 165.200 281.471,165.380 282.000,165.600 282.000 C 165.820 282.000,166.000 282.360,166.000 282.800 C 166.000 283.240,166.180 283.600,166.400 283.600 C 166.620 283.600,166.800 283.960,166.800 284.400 C 166.800 284.840,166.980 285.200,167.200 285.200 C 167.420 285.200,167.600 285.560,167.600 286.000 C 167.600 286.440,167.780 286.800,168.000 286.800 C 168.220 286.800,168.400 287.049,168.400 287.352 C 168.400 288.024,174.944 294.484,176.037 294.890 C 176.467 295.050,176.923 295.455,177.052 295.790 C 177.180 296.126,177.626 296.400,178.043 296.400 C 178.459 296.400,178.800 296.580,178.800 296.800 C 178.800 297.020,179.160 297.200,179.600 297.200 C 180.040 297.200,180.400 297.380,180.400 297.600 C 180.400 297.820,180.940 298.000,181.600 298.000 C 182.260 298.000,182.800 298.181,182.800 298.403 C 182.800 298.670,192.973 298.771,213.100 298.703 L 243.400 298.600 243.512 293.032 C 243.581 289.595,243.466 287.306,243.212 287.052 C 242.985 286.825,242.800 286.351,242.800 285.997 C 242.800 283.694,237.392 276.400,235.684 276.400 C 235.472 276.400,235.071 276.127,234.794 275.793 C 233.938 274.761,231.892 274.027,229.800 274.000 C 215.338 273.817,209.200 273.532,209.200 273.043 C 209.200 272.752,210.865 270.871,212.900 268.862 L 216.600 265.211 235.620 265.205 C 246.696 265.202,254.799 265.354,255.020 265.569 C 255.229 265.772,256.660 266.035,258.200 266.155 C 259.740 266.274,262.485 266.558,264.300 266.786 C 266.115 267.014,269.085 267.386,270.900 267.614 C 272.715 267.842,275.460 268.126,277.000 268.245 C 278.540 268.365,279.971 268.628,280.180 268.831 C 280.389 269.034,281.863 269.200,283.456 269.200 C 285.049 269.200,286.464 269.380,286.600 269.600 C 286.736 269.820,288.176 270.000,289.800 270.000 C 291.424 270.000,292.864 270.180,293.000 270.400 C 293.136 270.620,294.396 270.800,295.800 270.800 C 297.204 270.800,298.464 270.980,298.600 271.200 C 298.736 271.420,300.151 271.600,301.744 271.600 C 303.337 271.600,304.811 271.762,305.020 271.959 C 305.229 272.157,306.660 272.427,308.200 272.560 C 309.740 272.693,312.350 272.973,314.000 273.182 C 317.743 273.657,323.052 274.264,326.200 274.577 C 327.520 274.708,331.390 275.179,334.800 275.623 C 343.676 276.781,343.584 276.769,346.000 277.025 C 347.210 277.153,349.370 277.413,350.800 277.603 C 358.679 278.651,360.486 278.868,363.439 279.122 C 366.802 279.411,368.000 279.969,368.000 281.249 C 368.000 281.662,368.135 282.000,368.300 282.000 C 368.918 281.999,370.800 280.082,370.800 279.453 C 370.800 279.094,370.980 278.800,371.200 278.800 C 371.420 278.800,371.600 278.440,371.600 278.000 C 371.600 277.467,371.867 277.200,372.400 277.200 C 373.019 277.200,373.200 276.933,373.200 276.024 C 373.200 275.377,373.380 274.736,373.600 274.600 C 373.820 274.464,374.000 273.733,374.000 272.976 C 374.000 272.219,374.180 271.600,374.400 271.600 C 374.972 271.600,374.895 268.154,374.300 267.122 C 373.534 265.794,371.848 264.432,371.400 264.780 C 371.180 264.951,369.303 265.206,367.229 265.346 C 364.714 265.516,363.115 265.827,362.429 266.279 C 360.547 267.520,340.516 268.082,313.600 267.649 C 311.521 267.616,306.453 266.938,304.400 266.419 C 303.410 266.168,301.970 265.816,301.200 265.635 C 300.430 265.454,299.080 265.031,298.200 264.695 C 297.320 264.359,295.650 263.719,294.488 263.272 C 280.409 257.860,269.742 245.682,265.347 230.000 C 263.079 221.909,262.226 206.753,263.567 198.400 C 265.562 185.980,266.095 183.570,268.650 175.400 C 276.612 149.942,296.732 126.972,318.084 118.963 C 323.632 116.882,328.256 115.439,331.600 114.744 C 336.494 113.726,336.912 113.341,335.182 111.440 C 334.461 110.648,333.685 110.000,333.458 110.000 C 333.230 110.000,332.550 109.527,331.947 108.950 C 331.344 108.372,330.435 107.694,329.926 107.443 C 329.416 107.191,328.822 106.584,328.605 106.093 C 328.388 105.602,327.927 105.200,327.580 105.200 C 327.233 105.200,326.432 104.660,325.800 104.000 C 325.068 103.235,324.251 102.800,323.549 102.800 C 322.943 102.800,322.336 102.620,322.200 102.400 C 322.064 102.180,321.524 102.000,321.000 102.000 C 320.476 102.000,319.936 101.820,319.800 101.600 C 319.498 101.112,303.677 101.093,302.800 101.580 M282.933 120.225 C 287.840 122.967,286.832 129.855,281.266 131.605 C 279.912 132.031,279.366 132.046,278.772 131.675 C 278.353 131.414,277.680 131.200,277.275 131.200 C 276.871 131.200,276.193 130.795,275.770 130.300 C 270.911 124.619,276.565 116.666,282.933 120.225 M231.400 185.600 C 232.263 186.040,233.426 186.401,233.985 186.401 C 237.163 186.406,240.800 191.453,240.800 195.860 C 240.800 197.955,241.605 197.926,232.200 196.174 C 228.020 195.395,223.638 194.594,222.461 194.394 C 218.468 193.714,218.308 193.543,219.342 191.087 C 221.319 186.396,227.470 183.596,231.400 185.600 "
			stroke="none"
			fill="#009688">
		</path>
    </g>
</svg>
